<svg width="345" height="294" viewBox="0 0 345 294" fill="none" xmlns="http://www.w3.org/2000/svg">
<path d="M343 293H344V292V7C344 3.68629 341.314 1 338 1H189.55H172.5H155.45H7C3.68629 1 1 3.68628 1 6.99999V292V293H2H343Z" fill="#5101B7"/>
<path d="M343 293H344V292V7C344 3.68629 341.314 1 338 1H189.55H172.5H155.45H7C3.68629 1 1 3.68628 1 6.99999V292V293H2H343Z" fill="url(#paint0_radial_4121_30)" fill-opacity="0.3"/>
<path d="M343 293H344V292V7C344 3.68629 341.314 1 338 1H189.55H172.5H155.45H7C3.68629 1 1 3.68628 1 6.99999V292V293H2H343Z" stroke="#5101B7" stroke-width="2"/>
<path d="M343 293H344V292V7C344 3.68629 341.314 1 338 1H189.55H172.5H155.45H7C3.68629 1 1 3.68628 1 6.99999V292V293H2H343Z" stroke="url(#paint1_radial_4121_30)" stroke-opacity="0.53" stroke-width="2"/>
<defs>
<radialGradient id="paint0_radial_4121_30" cx="0" cy="0" r="1" gradientUnits="userSpaceOnUse" gradientTransform="translate(183.125 62.9) rotate(91.5494) scale(374.237 183.979)">
<stop stop-color="white"/>
<stop offset="1" stop-color="white" stop-opacity="0"/>
</radialGradient>
<radialGradient id="paint1_radial_4121_30" cx="0" cy="0" r="1" gradientUnits="userSpaceOnUse" gradientTransform="translate(179.815 2.00002) rotate(90.4799) scale(201.557 119.986)">
<stop stop-color="white"/>
<stop offset="1" stop-color="white" stop-opacity="0"/>
</radialGradient>
</defs>
</svg>
