<svg width="345" height="222" viewBox="0 0 345 222" fill="none" xmlns="http://www.w3.org/2000/svg">
<g filter="url(#filter0_b_4203_23)">
<path d="M2 2H343V215C343 217.761 340.761 220 338 220H7C4.23857 220 2 217.761 2 215V2Z" fill="#1C1C1C"/>
<path d="M2 2H343V215C343 217.761 340.761 220 338 220H7C4.23857 220 2 217.761 2 215V2Z" fill="url(#paint0_radial_4203_23)" fill-opacity="0.15"/>
<path d="M2 1H1V2V215C1 218.314 3.68629 221 7 221H338C341.314 221 344 218.314 344 215V2V1H343H2Z" stroke="white" stroke-opacity="0.2" stroke-width="2"/>
<path d="M2 1H1V2V215C1 218.314 3.68629 221 7 221H338C341.314 221 344 218.314 344 215V2V1H343H2Z" stroke="url(#paint1_radial_4203_23)" stroke-opacity="0.53" stroke-width="2"/>
</g>
<defs>
<filter id="filter0_b_4203_23" x="-40" y="-40" width="425" height="302" filterUnits="userSpaceOnUse" color-interpolation-filters="sRGB">
<feFlood flood-opacity="0" result="BackgroundImageFix"/>
<feGaussianBlur in="BackgroundImageFix" stdDeviation="20"/>
<feComposite in2="SourceAlpha" operator="in" result="effect1_backgroundBlur_4203_23"/>
<feBlend mode="normal" in="SourceGraphic" in2="effect1_backgroundBlur_4203_23" result="shape"/>
</filter>
<radialGradient id="paint0_radial_4203_23" cx="0" cy="0" r="1" gradientUnits="userSpaceOnUse" gradientTransform="translate(183.125 47.78) rotate(92.0607) scale(281.402 183.928)">
<stop stop-color="white"/>
<stop offset="1" stop-color="white" stop-opacity="0"/>
</radialGradient>
<radialGradient id="paint1_radial_4203_23" cx="0" cy="0" r="1" gradientUnits="userSpaceOnUse" gradientTransform="translate(179.815 215.613) rotate(-90) scale(118.111 93.5343)">
<stop stop-color="white"/>
<stop offset="1" stop-color="white" stop-opacity="0"/>
</radialGradient>
</defs>
</svg>
