<svg width="43" height="46" viewBox="0 0 43 46" fill="none" xmlns="http://www.w3.org/2000/svg">
<g filter="url(#filter0_d_4015_453)">
<ellipse cx="21.4578" cy="21.4947" rx="10.7804" ry="10.7804" transform="rotate(90 21.4578 21.4947)" fill="#5101B7"/>
<ellipse cx="21.4578" cy="21.4947" rx="10.7804" ry="10.7804" transform="rotate(90 21.4578 21.4947)" fill="url(#paint0_radial_4015_453)" fill-opacity="0.25"/>
<path d="M21.4578 32.0251C15.642 32.0251 10.9274 27.3105 10.9274 21.4947C10.9274 15.679 15.642 10.9644 21.4578 10.9644C27.2735 10.9644 31.9882 15.679 31.9882 21.4947C31.9882 27.3105 27.2735 32.0251 21.4578 32.0251Z" stroke="white" stroke-opacity="0.2" stroke-width="0.5"/>
<path d="M21.4578 32.0251C15.642 32.0251 10.9274 27.3105 10.9274 21.4947C10.9274 15.679 15.642 10.9644 21.4578 10.9644C27.2735 10.9644 31.9882 15.679 31.9882 21.4947C31.9882 27.3105 27.2735 32.0251 21.4578 32.0251Z" stroke="url(#paint1_radial_4015_453)" stroke-opacity="0.53" stroke-width="0.5"/>
</g>
<circle cx="21.5" cy="21.5" r="14.9005" transform="rotate(125.808 21.5 21.5)" stroke="url(#paint2_linear_4015_453)"/>
<path d="M25.0636 19.0854L20.1311 23.8675L17.889 21.6938" stroke="white" stroke-width="1.5" stroke-linecap="square" stroke-linejoin="round"/>
<defs>
<filter id="filter0_d_4015_453" x="0.677368" y="3.71436" width="41.5608" height="41.5605" filterUnits="userSpaceOnUse" color-interpolation-filters="sRGB">
<feFlood flood-opacity="0" result="BackgroundImageFix"/>
<feColorMatrix in="SourceAlpha" type="matrix" values="0 0 0 0 0 0 0 0 0 0 0 0 0 0 0 0 0 0 127 0" result="hardAlpha"/>
<feOffset dy="3"/>
<feGaussianBlur stdDeviation="5"/>
<feComposite in2="hardAlpha" operator="out"/>
<feColorMatrix type="matrix" values="0 0 0 0 0.317647 0 0 0 0 0.00392157 0 0 0 0 0.717647 0 0 0 1 0"/>
<feBlend mode="normal" in2="BackgroundImageFix" result="effect1_dropShadow_4015_453"/>
<feBlend mode="normal" in="SourceGraphic" in2="effect1_dropShadow_4015_453" result="shape"/>
</filter>
<radialGradient id="paint0_radial_4015_453" cx="0" cy="0" r="1" gradientUnits="userSpaceOnUse" gradientTransform="translate(22.1295 15.2421) rotate(91.3177) scale(27.8207 11.6338)">
<stop stop-color="white"/>
<stop offset="1" stop-color="white" stop-opacity="0"/>
</radialGradient>
<radialGradient id="paint1_radial_4015_453" cx="0" cy="0" r="1" gradientUnits="userSpaceOnUse" gradientTransform="translate(32.2382 21.9573) rotate(-179.592) scale(14.9851 7.58653)">
<stop stop-color="white"/>
<stop offset="1" stop-color="white" stop-opacity="0"/>
</radialGradient>
<linearGradient id="paint2_linear_4015_453" x1="21.5" y1="6.09948" x2="21.5" y2="36.9006" gradientUnits="userSpaceOnUse">
<stop stop-color="#5101B7"/>
<stop offset="0.175" stop-color="#5101B7" stop-opacity="0"/>
<stop offset="0.795" stop-color="#5101B7" stop-opacity="0"/>
<stop offset="1" stop-color="#5101B7"/>
</linearGradient>
</defs>
</svg>
